<mxfile host="app.diagrams.net" modified="2023-12-07T16:56:14.891Z" agent="Mozilla/5.0 (Windows NT 10.0; Win64; x64) AppleWebKit/537.36 (KHTML, like Gecko) Chrome/119.0.0.0 Safari/537.36" etag="kfyuOFBT5hWKpYedKAbD" version="22.1.7" type="device">
  <diagram name="Page-1" id="e7e014a7-5840-1c2e-5031-d8a46d1fe8dd">
    <mxGraphModel dx="1434" dy="784" grid="1" gridSize="10" guides="1" tooltips="1" connect="1" arrows="1" fold="1" page="1" pageScale="1" pageWidth="1169" pageHeight="826" background="none" math="0" shadow="0">
      <root>
        <mxCell id="0" />
        <mxCell id="1" parent="0" />
        <mxCell id="2" value="Empleado" style="swimlane;whiteSpace=wrap" parent="1" vertex="1">
          <mxGeometry x="700" y="260" width="170" height="360" as="geometry" />
        </mxCell>
        <mxCell id="sLUZJo9RyvYERCe2IfWA-42" value="nombre: string" style="text;html=1;align=center;verticalAlign=middle;resizable=0;points=[];autosize=1;strokeColor=none;fillColor=none;" vertex="1" parent="2">
          <mxGeometry y="35" width="100" height="30" as="geometry" />
        </mxCell>
        <mxCell id="sLUZJo9RyvYERCe2IfWA-43" value="apellidos: string" style="text;html=1;align=center;verticalAlign=middle;resizable=0;points=[];autosize=1;strokeColor=none;fillColor=none;" vertex="1" parent="2">
          <mxGeometry y="65" width="110" height="30" as="geometry" />
        </mxCell>
        <mxCell id="sLUZJo9RyvYERCe2IfWA-44" value="idEmpleado: int" style="text;html=1;align=center;verticalAlign=middle;resizable=0;points=[];autosize=1;strokeColor=none;fillColor=none;" vertex="1" parent="2">
          <mxGeometry y="95" width="110" height="30" as="geometry" />
        </mxCell>
        <mxCell id="sLUZJo9RyvYERCe2IfWA-45" value="departamento: string" style="text;html=1;align=center;verticalAlign=middle;resizable=0;points=[];autosize=1;strokeColor=none;fillColor=none;" vertex="1" parent="2">
          <mxGeometry y="125" width="130" height="30" as="geometry" />
        </mxCell>
        <mxCell id="sLUZJo9RyvYERCe2IfWA-46" value="datosLaborales: string" style="text;html=1;align=center;verticalAlign=middle;resizable=0;points=[];autosize=1;strokeColor=none;fillColor=none;" vertex="1" parent="2">
          <mxGeometry y="155" width="140" height="30" as="geometry" />
        </mxCell>
        <mxCell id="sLUZJo9RyvYERCe2IfWA-50" value="categoríaProfesional: string" style="text;html=1;align=center;verticalAlign=middle;resizable=0;points=[];autosize=1;strokeColor=none;fillColor=none;" vertex="1" parent="2">
          <mxGeometry y="185" width="170" height="30" as="geometry" />
        </mxCell>
        <mxCell id="sLUZJo9RyvYERCe2IfWA-83" value="" style="endArrow=none;html=1;rounded=0;" edge="1" parent="2">
          <mxGeometry width="50" height="50" relative="1" as="geometry">
            <mxPoint y="250" as="sourcePoint" />
            <mxPoint x="170" y="250" as="targetPoint" />
          </mxGeometry>
        </mxCell>
        <mxCell id="sLUZJo9RyvYERCe2IfWA-79" value="idRegistro: int" style="text;html=1;align=center;verticalAlign=middle;resizable=0;points=[];autosize=1;strokeColor=none;fillColor=none;" vertex="1" parent="2">
          <mxGeometry y="215" width="100" height="30" as="geometry" />
        </mxCell>
        <mxCell id="sLUZJo9RyvYERCe2IfWA-47" value="+registrarEmpleado()" style="text;html=1;align=center;verticalAlign=middle;resizable=0;points=[];autosize=1;strokeColor=none;fillColor=none;" vertex="1" parent="2">
          <mxGeometry x="10" y="260" width="140" height="30" as="geometry" />
        </mxCell>
        <mxCell id="sLUZJo9RyvYERCe2IfWA-48" value="+actualizarEmpleado()" style="text;html=1;align=center;verticalAlign=middle;resizable=0;points=[];autosize=1;strokeColor=none;fillColor=none;" vertex="1" parent="2">
          <mxGeometry x="10" y="290" width="140" height="30" as="geometry" />
        </mxCell>
        <mxCell id="sLUZJo9RyvYERCe2IfWA-49" value="+consultarEmpleado()" style="text;html=1;align=center;verticalAlign=middle;resizable=0;points=[];autosize=1;strokeColor=none;fillColor=none;" vertex="1" parent="2">
          <mxGeometry x="10" y="320" width="140" height="30" as="geometry" />
        </mxCell>
        <mxCell id="4" value="Categoría &#xa;profesional" style="swimlane;whiteSpace=wrap;startSize=40;" parent="1" vertex="1">
          <mxGeometry x="222.25" y="460" width="190" height="250" as="geometry" />
        </mxCell>
        <mxCell id="sLUZJo9RyvYERCe2IfWA-51" value="idCategoríaProfesional: string" style="text;html=1;align=center;verticalAlign=middle;resizable=0;points=[];autosize=1;strokeColor=none;fillColor=none;" vertex="1" parent="4">
          <mxGeometry y="105" width="180" height="30" as="geometry" />
        </mxCell>
        <mxCell id="sLUZJo9RyvYERCe2IfWA-52" value="+modificarCategoríaProfesional()" style="text;html=1;align=center;verticalAlign=middle;resizable=0;points=[];autosize=1;strokeColor=none;fillColor=none;" vertex="1" parent="4">
          <mxGeometry x="-5" y="142.5" width="200" height="30" as="geometry" />
        </mxCell>
        <mxCell id="sLUZJo9RyvYERCe2IfWA-53" value="+consultarCategoría()" style="text;html=1;align=center;verticalAlign=middle;resizable=0;points=[];autosize=1;strokeColor=none;fillColor=none;" vertex="1" parent="4">
          <mxGeometry y="172.5" width="140" height="30" as="geometry" />
        </mxCell>
        <mxCell id="sLUZJo9RyvYERCe2IfWA-76" value="nombre: string" style="text;html=1;align=center;verticalAlign=middle;resizable=0;points=[];autosize=1;strokeColor=none;fillColor=none;" vertex="1" parent="4">
          <mxGeometry y="53" width="100" height="30" as="geometry" />
        </mxCell>
        <mxCell id="sLUZJo9RyvYERCe2IfWA-77" value="descripción: string" style="text;html=1;align=center;verticalAlign=middle;resizable=0;points=[];autosize=1;strokeColor=none;fillColor=none;" vertex="1" parent="4">
          <mxGeometry y="75" width="120" height="30" as="geometry" />
        </mxCell>
        <mxCell id="sLUZJo9RyvYERCe2IfWA-78" value="" style="endArrow=none;html=1;rounded=0;" edge="1" parent="4">
          <mxGeometry width="50" height="50" relative="1" as="geometry">
            <mxPoint y="135" as="sourcePoint" />
            <mxPoint x="170" y="135" as="targetPoint" />
          </mxGeometry>
        </mxCell>
        <mxCell id="sLUZJo9RyvYERCe2IfWA-54" value="Departamento" style="swimlane;whiteSpace=wrap;startSize=40;" vertex="1" parent="1">
          <mxGeometry x="230" y="150" width="174.5" height="240" as="geometry" />
        </mxCell>
        <mxCell id="sLUZJo9RyvYERCe2IfWA-55" value="+registrarDepartamento()" style="text;html=1;align=center;verticalAlign=middle;resizable=0;points=[];autosize=1;strokeColor=none;fillColor=none;" vertex="1" parent="sLUZJo9RyvYERCe2IfWA-54">
          <mxGeometry y="145" width="160" height="30" as="geometry" />
        </mxCell>
        <mxCell id="sLUZJo9RyvYERCe2IfWA-56" value="+asignarDepartamento()" style="text;html=1;align=center;verticalAlign=middle;resizable=0;points=[];autosize=1;strokeColor=none;fillColor=none;" vertex="1" parent="sLUZJo9RyvYERCe2IfWA-54">
          <mxGeometry y="175" width="150" height="30" as="geometry" />
        </mxCell>
        <mxCell id="sLUZJo9RyvYERCe2IfWA-73" value="idDepartamento: int" style="text;html=1;align=center;verticalAlign=middle;resizable=0;points=[];autosize=1;strokeColor=none;fillColor=none;" vertex="1" parent="sLUZJo9RyvYERCe2IfWA-54">
          <mxGeometry y="88" width="130" height="30" as="geometry" />
        </mxCell>
        <mxCell id="sLUZJo9RyvYERCe2IfWA-75" value="" style="endArrow=none;html=1;rounded=0;" edge="1" parent="sLUZJo9RyvYERCe2IfWA-54">
          <mxGeometry width="50" height="50" relative="1" as="geometry">
            <mxPoint y="134.5" as="sourcePoint" />
            <mxPoint x="170" y="134.5" as="targetPoint" />
          </mxGeometry>
        </mxCell>
        <mxCell id="sLUZJo9RyvYERCe2IfWA-81" value="nombreDepartamento: string" style="text;html=1;align=center;verticalAlign=middle;resizable=0;points=[];autosize=1;strokeColor=none;fillColor=none;" vertex="1" parent="sLUZJo9RyvYERCe2IfWA-54">
          <mxGeometry x="-5.5" y="58" width="180" height="30" as="geometry" />
        </mxCell>
        <mxCell id="sLUZJo9RyvYERCe2IfWA-90" value="1" style="text;html=1;align=center;verticalAlign=middle;resizable=0;points=[];autosize=1;strokeColor=none;fillColor=none;" vertex="1" parent="1">
          <mxGeometry x="695" y="728" width="30" height="30" as="geometry" />
        </mxCell>
        <mxCell id="sLUZJo9RyvYERCe2IfWA-91" value="1" style="text;html=1;align=center;verticalAlign=middle;resizable=0;points=[];autosize=1;strokeColor=none;fillColor=none;" vertex="1" parent="1">
          <mxGeometry x="435" y="728" width="30" height="30" as="geometry" />
        </mxCell>
        <mxCell id="sLUZJo9RyvYERCe2IfWA-99" value="1" style="endArrow=open;html=1;endSize=12;startArrow=diamondThin;startSize=14;startFill=1;edgeStyle=orthogonalEdgeStyle;align=left;verticalAlign=bottom;rounded=0;" edge="1" parent="1" source="2" target="sLUZJo9RyvYERCe2IfWA-54">
          <mxGeometry x="-1" y="3" relative="1" as="geometry">
            <mxPoint x="500" y="460" as="sourcePoint" />
            <mxPoint x="660" y="460" as="targetPoint" />
          </mxGeometry>
        </mxCell>
        <mxCell id="sLUZJo9RyvYERCe2IfWA-100" value="1" style="endArrow=open;html=1;endSize=12;startArrow=diamondThin;startSize=14;startFill=1;edgeStyle=orthogonalEdgeStyle;align=left;verticalAlign=bottom;rounded=0;" edge="1" parent="1" source="2" target="4">
          <mxGeometry x="-1" y="3" relative="1" as="geometry">
            <mxPoint x="710" y="450" as="sourcePoint" />
            <mxPoint x="415" y="280" as="targetPoint" />
          </mxGeometry>
        </mxCell>
        <mxCell id="sLUZJo9RyvYERCe2IfWA-101" value="1 , N" style="text;html=1;align=center;verticalAlign=middle;resizable=0;points=[];autosize=1;strokeColor=none;fillColor=none;" vertex="1" parent="1">
          <mxGeometry x="560" y="328" width="50" height="30" as="geometry" />
        </mxCell>
        <mxCell id="sLUZJo9RyvYERCe2IfWA-102" value="1 , N" style="text;html=1;align=center;verticalAlign=middle;resizable=0;points=[];autosize=1;strokeColor=none;fillColor=none;" vertex="1" parent="1">
          <mxGeometry x="560" y="538" width="50" height="30" as="geometry" />
        </mxCell>
      </root>
    </mxGraphModel>
  </diagram>
</mxfile>
